<svg width="149" height="32" viewBox="0 0 149 32" fill="none" xmlns="http://www.w3.org/2000/svg">
  <g clip-path="url(#clip0)">
    <path d="M14.5643 18.8003C14.5643 17.5354 14.1157 16.5371 13.2187 15.8054C12.3216 15.0632 10.6805 14.3628 8.2953 13.7043C5.91015 13.0353 4.16877 12.3087 3.07116 11.5248C1.5092 10.4167 0.728216 8.9637 0.728216 7.16575C0.728216 5.42004 1.45115 4.00362 2.89701 2.91647C4.35347 1.81887 6.21093 1.27007 8.46944 1.27007C9.99977 1.27007 11.3665 1.56277 12.5696 2.14815C13.7833 2.73352 14.7226 3.54889 15.3875 4.59424C16.0524 5.63955 16.3848 6.8051 16.3848 8.09085H14.4218C14.4218 6.53332 13.8836 5.28415 12.8071 4.34334C11.7306 3.39208 10.2847 2.91647 8.46944 2.91647C6.70697 2.91647 5.30329 3.30846 4.25849 4.09245C3.21365 4.86602 2.69122 5.87998 2.69122 7.13437C2.69122 8.29468 3.16088 9.24073 4.10017 9.97245C5.03946 10.7042 6.54339 11.3523 8.61194 11.9168C10.6805 12.4708 12.2477 13.0509 13.3136 13.6572C14.3796 14.2531 15.1817 14.9691 15.7199 15.8054C16.2582 16.6417 16.5273 17.6295 16.5273 18.7689C16.5273 20.5669 15.7991 22.0094 14.3427 23.0966C12.8968 24.1837 10.9865 24.7273 8.61194 24.7273C6.98663 24.7273 5.49326 24.4398 4.13182 23.8649C2.78094 23.29 1.75194 22.4851 1.04483 21.4502C0.348276 20.4153 0 19.2288 0 17.8908H1.9472C1.9472 19.5006 2.55402 20.7707 3.7677 21.7011C4.98142 22.6314 6.59613 23.0966 8.61194 23.0966C10.4061 23.0966 11.8467 22.7046 12.9337 21.9206C14.0208 21.1366 14.5643 20.0965 14.5643 18.8003ZM31.1076 24.4137C30.9175 23.8805 30.7962 23.0913 30.7432 22.046C30.0784 22.9032 29.2288 23.567 28.1946 24.0374C27.1708 24.4973 26.0838 24.7273 24.9334 24.7273C23.287 24.7273 21.952 24.2726 20.9282 23.3631C19.9151 22.4537 19.4085 21.3038 19.4085 19.9135C19.4085 18.2619 20.0998 16.9552 21.4823 15.9936C22.8754 15.0319 24.8121 14.551 27.2922 14.551H30.7275V12.6224C30.7275 11.4098 30.3475 10.4585 29.5877 9.76861C28.8383 9.06824 27.7407 8.71806 26.2949 8.71806C24.9756 8.71806 23.8833 9.05257 23.0179 9.72156C22.1525 10.3906 21.7198 11.1955 21.7198 12.1363L19.8201 12.1206C19.8201 10.7721 20.4533 9.60659 21.7198 8.62398C22.9863 7.63091 24.5429 7.13437 26.3899 7.13437C28.3001 7.13437 29.804 7.61002 30.9015 8.56125C32.0099 9.50205 32.5797 10.8192 32.6115 12.5126V20.5407C32.6115 22.1819 32.7854 23.4102 33.1337 24.2255V24.4137H31.1076ZM25.1551 23.0652C26.4215 23.0652 27.5508 22.762 28.5428 22.1558C29.5455 21.5495 30.2737 20.7393 30.7275 19.7254V15.9936H27.3397C25.4506 16.0144 23.973 16.3594 22.9071 17.0284C21.8411 17.687 21.3082 18.5964 21.3082 19.7567C21.3082 20.708 21.6617 21.4972 22.3688 22.1244C23.0865 22.7516 24.0152 23.0652 25.1551 23.0652ZM39.0386 24.4137V8.98462H36.2048V7.44796H39.0386V5.3939C39.0386 3.65865 39.4819 2.32586 40.3685 1.39552C41.2654 0.465171 42.5109 0 44.1044 0C44.8221 0 45.4924 0.0888532 46.1151 0.266556L45.9726 1.83455C45.4449 1.70911 44.8696 1.64639 44.2469 1.64639C43.202 1.64639 42.3895 1.97044 41.8089 2.61855C41.2285 3.25619 40.9383 4.16565 40.9383 5.34685V7.44796H45.0227V8.98462H40.9383V24.4137H39.0386ZM54.6634 24.7273C53.2071 24.7273 51.8881 24.3719 50.7058 23.661C49.5345 22.9502 48.6215 21.9624 47.9673 20.6975C47.3128 19.4222 46.9857 17.9954 46.9857 16.4169V15.7427C46.9857 14.1119 47.3022 12.6433 47.9355 11.3366C48.5791 10.0299 49.4712 9.00551 50.6108 8.26333C51.7507 7.51069 52.9856 7.13437 54.3152 7.13437C56.3943 7.13437 58.0407 7.83999 59.2544 9.25116C60.4787 10.6519 61.0909 12.5701 61.0909 15.0057V16.0563H48.8697V16.4169C48.8697 18.3403 49.4237 19.9449 50.5318 21.2307C51.6505 22.5059 53.0543 23.1436 54.7427 23.1436C55.7558 23.1436 56.6476 22.9607 57.418 22.5948C58.199 22.2289 58.9062 21.6435 59.5395 20.8387L60.7269 21.7324C59.3337 23.729 57.3127 24.7273 54.6634 24.7273ZM54.3152 8.73373C52.8905 8.73373 51.6874 9.25116 50.7058 10.286C49.7351 11.3209 49.1438 12.7112 48.9329 14.4569H59.2069V14.2531C59.1543 12.6224 58.6847 11.2948 57.798 10.2704C56.9114 9.24594 55.7507 8.73373 54.3152 8.73373Z" fill="black"/>
    <path d="M80.8174 13.9461H70.7158V20.5388H82.5714V24.6127H65.4546V0H82.5362V4.10774H70.7158V9.97355H80.8174V13.9461ZM90.3162 6.32223L90.4742 8.43525C91.8303 6.80118 93.6483 5.98412 95.9284 5.98412C97.9394 5.98412 99.4359 6.55324 100.418 7.69149C101.4 8.8297 101.903 10.5314 101.926 12.7966V24.6127H96.8577V12.9149C96.8577 11.8781 96.6239 11.1287 96.1563 10.6666C95.6887 10.1933 94.9113 9.95665 93.8237 9.95665C92.3974 9.95665 91.3277 10.5427 90.6143 11.7147V24.6127H85.546V6.32223H90.3162ZM112.179 1.82567V6.32223H115.424V9.90594H112.179V19.0343C112.179 19.7104 112.314 20.195 112.583 20.488C112.851 20.7811 113.366 20.9276 114.126 20.9276C114.687 20.9276 115.184 20.8881 115.617 20.8092V24.5113C114.623 24.8043 113.6 24.9508 112.547 24.9508C108.993 24.9508 107.181 23.2209 107.111 19.7612V9.90594H104.34V6.32223H107.111V1.82567H112.179ZM129.237 10.9033C128.547 10.8131 127.939 10.768 127.413 10.768C125.495 10.768 124.238 11.3935 123.642 12.6445V24.6127H118.574V6.32223H123.361L123.502 8.50289C124.519 6.82372 125.928 5.98412 127.728 5.98412C128.29 5.98412 128.816 6.05739 129.307 6.20389L129.237 10.9033ZM139.419 17.6988L142.927 6.32223H148.364L140.735 27.4526L140.314 28.4162C139.18 30.8053 137.309 32 134.702 32C133.965 32 133.217 31.893 132.457 31.6787V27.9767L133.228 27.9936C134.187 27.9936 134.901 27.8527 135.368 27.571C135.847 27.2892 136.222 26.8215 136.49 26.1679L137.087 24.6634L130.44 6.32223H135.894L139.419 17.6988Z" fill="black"/>
  </g>
  <defs>
    <clipPath id="clip0">
      <rect width="148.364" height="32" fill="white"/>
    </clipPath>
  </defs>
</svg>
