<?xml version="1.0" encoding="UTF-8"?>
<svg width="217px" height="133px" viewBox="0 0 217 133" version="1.1" xmlns="http://www.w3.org/2000/svg" xmlns:xlink="http://www.w3.org/1999/xlink">
    <!-- Generator: Sketch 61.2 (89653) - https://sketch.com -->
    <title>SafeEntry Pass lockup</title>
    <desc>Created with Sketch.</desc>
    <g id="User-flows" stroke="none" stroke-width="1" fill="none" fill-rule="evenodd">
        <g id="SPM-Pass" transform="translate(-79.000000, -244.000000)" fill="#FFFFFF">
            <g id="SafeEntry-Pass-lockup" transform="translate(79.000000, 244.000000)">
                <g id="SE-logo-mark" transform="translate(73.000000, 0.000000)" fill-rule="nonzero">
                    <path d="M34.800425,1.0025 L5.6825,10.41065 C2.68455111,11.3792942 0.736835648,14.271365 0.966275,17.41355 L5.06465,73.540025 C5.26957115,76.3478527 7.17492784,78.7429006 9.8648,79.57385 L34.8425,87.29 C35.8796757,87.6104342 37.0073927,87.4192348 37.8809857,86.7748384 C38.7545788,86.1304421 39.270275,85.1094466 39.270275,84.0239 L39.270275,4.255775 C39.2697634,3.16259266 38.7466871,2.13552556 37.8628239,1.49222652 C36.9789606,0.848927487 35.8408264,0.666921633 34.800425,1.0025 Z M29.121875,49.7699 C27.0935,49.7699 25.448975,47.287025 25.448975,44.22455 C25.448975,41.162075 27.0935,38.6792 29.121875,38.6792 C31.15025,38.6792 32.795,41.16185 32.795,44.225 C32.795,47.28815 31.150475,49.7699 29.121875,49.7699 Z" id="Shape"></path>
                    <polygon id="Path" opacity="0.2" points="39.2705 5.7905 49.91975 79.136 39.2705 82.48625"></polygon>
                    <path d="M63.285425,18.278225 C64.3148107,18.6072386 64.9798086,19.6044553 64.887875,20.681225 L64.172825,29.378825 L63.926675,32.37335 L68.410025,32.761025 L68.657525,29.7476 L69.3728,21.05 C69.6324945,17.891869 67.6842886,14.9703988 64.66895,13.99625 L54.20015,10.613825 L52.42265,10.039625 L52.42265,14.768675 L52.81595,14.8958 L63.285425,18.278225 Z" id="Path" opacity="0.9"></path>
                    <path d="M61.8038,58.19345 L61.61525,60.485975 L60.877925,69.45245 C60.802528,70.3956953 60.1612483,71.1983637 59.257925,71.48015 L52.13195,73.721825 L49.265,74.623625 L49.919975,79.1351 L53.482175,78.014375 L60.60815,75.7727 C63.2555399,74.9398781 65.1350569,72.5869684 65.3624,69.821 L66.099725,60.854975 L66.286475,58.5809 L61.8038,58.19345 Z" id="Path" opacity="0.9"></path>
                </g>
                <g id="SE-pass-word" transform="translate(0.000000, 102.000000)">
                    <g id="Group-19">
                        <path d="M0.000256322034,19.6017149 L1.48008886,18.1210279 C2.83090598,20.0400256 5.01904175,21.1943291 7.36524276,21.2259422 C9.75758175,21.5275478 11.9422999,19.8324047 12.2430511,17.4392113 C12.2584304,17.3213032 12.2678289,17.2016863 12.2729553,17.0829237 C12.2729553,14.3266074 9.75416412,13.2449285 7.13198971,12.130782 C4.07065022,10.843191 1.12892768,9.52313253 1.12892768,5.77399558 C1.093897,2.62038015 3.62294107,0.0357996441 6.7774109,0.000768966102 C6.94572903,-0.000939847458 7.11404717,0.00418659322 7.28236531,0.0170026949 C9.73109514,-0.0035030678 12.0593536,1.07732151 13.622918,2.96128846 L12.3199477,4.27963812 C11.1160885,2.75024998 9.26971547,1.86679337 7.32252242,1.89071676 C5.21555531,1.68053269 3.33500598,3.21931931 3.12482192,5.32799524 C3.11542344,5.43137846 3.10944259,5.53561608 3.10687937,5.63985371 C3.10687937,8.36370253 5.64190429,9.37702897 8.29227412,10.4869034 C11.1938395,11.6899081 14.2381037,13.0663574 14.2381037,17.020552 C14.2449262,20.3903324 11.5176597,23.1269973 8.14873378,23.1330209 C7.93171446,23.1338325 7.71554954,23.1218708 7.50023903,23.0996563 C4.61063531,23.0808593 1.87140717,21.8035212 0.000256322034,19.6017149" id="Fill-1"></path>
                        <path d="M31.5365814,15.0426003 C31.5186389,11.6300996 28.7383992,8.87805541 25.3241897,8.89591071 C21.9116891,8.91308608 19.1604992,11.6941802 19.1775082,15.1066808 C19.1955299,18.5063654 21.9544094,21.2524288 25.3532396,21.254997 C28.763177,21.2592641 31.531455,18.4995302 31.5365814,15.0895927 L31.5365814,15.0426003 Z M17.2714058,15.0426003 C17.2509001,10.668892 20.7471326,7.0880732 25.1199865,7.00519575 C27.6985862,6.95393134 30.1225382,8.23212388 31.5374358,10.3886466 L31.5374358,7.29911168 L33.4410542,7.29911168 L33.4410542,22.8074491 L31.5374358,22.8074491 L31.5374358,19.7179142 C30.1225382,21.8735825 27.6985862,23.1517751 25.1199865,23.1013651 C20.7385886,23.0176332 17.2397928,19.4257071 17.2714058,15.0426003 L17.2714058,15.0426003 Z" id="Fill-3"></path>
                        <path d="M41.2604996,4.52690344 L41.2604996,7.29859903 L45.4624721,7.29859903 L45.4624721,9.02535514 L41.2604996,9.02535514 L41.2604996,22.8077909 L39.3568813,22.8077909 L39.3568813,9.02535514 L36.7509406,9.02535514 L36.7509406,7.29859903 L39.3568813,7.29859903 L39.3568813,4.32611785 C39.194544,2.11320429 40.8563652,0.187371407 43.0692787,0.0241797119 C43.2230719,0.0139268305 43.3768652,0.0113636102 43.5289496,0.0173444576 C44.1868428,0.0293061525 44.8387552,0.137815814 45.4658897,0.339455814 L45.4658897,2.12345717 C44.9378663,1.89618497 44.3713946,1.77144158 43.7963789,1.75777107 C42.4242016,1.72017717 41.2818597,2.80185615 41.2442658,4.17403344 C41.2417026,4.29194158 41.2459746,4.40984971 41.2604996,4.52690344" id="Fill-5"></path>
                        <path d="M48.9117123,13.7835465 L61.1416909,13.7835465 C60.6017058,10.8546401 58.0419031,8.73400242 55.0634411,8.74681853 C52.0678909,8.72545836 49.482456,10.8418239 48.9117123,13.7826921 L48.9117123,13.7835465 Z M63.0897384,15.3360036 L48.7792792,15.3360036 C48.9228196,18.8023319 51.8491628,21.4954221 55.3137823,21.3518817 C57.3951172,21.2664411 59.2970267,20.1548578 60.3932306,18.3853814 L62.0234387,19.0731789 C60.6068323,21.5723187 57.9521904,23.1128141 55.0796748,23.1000774 C50.6350507,23.1025612 47.0294541,19.5012367 47.0268895,15.0557582 C47.0243277,10.6111341 50.6265067,7.00553751 55.0711307,7.00297413 C59.4397126,7.00211988 63.0136962,10.4855363 63.1213514,14.8532638 L63.0897384,15.3360036 Z" id="Fill-7"></path>
                        <polygon id="Fill-9" points="71.52598 4.19317215 71.52598 9.6562491 79.5121202 9.6562491 79.5121202 13.4942444 71.52598 13.4942444 71.52598 18.9248538 80.5929448 18.9248538 80.5929448 22.8072783 67.1642334 22.8072783 67.1642334 0.311602153 80.5929448 0.311602153 80.5929448 4.19402656"></polygon>
                        <path d="M99.0956362,12.9508416 L99.0956362,22.8072783 L94.8911005,22.8072783 L94.8911005,13.7001564 C94.8911005,11.2223767 93.7333793,10.5063838 92.1236769,10.5063838 C90.3499284,10.5063838 89.0623374,11.632492 89.0452493,13.9906547 L89.0452493,22.8081327 L84.8578017,22.8081327 L84.8578017,7.2989408 L89.0452493,7.2989408 L89.0452493,9.4793869 C90.0816447,7.90642402 91.8502667,6.97341181 93.7333793,7.00502486 C97.0442056,7.00502486 99.0956362,9.06841724 99.0956362,12.9508416" id="Fill-11"></path>
                        <path d="M108.231295,10.2115281 L108.231295,17.5055987 C108.231295,18.9247684 109.007951,19.6014586 110.122952,19.6014586 L111.719838,19.6014586 L111.719838,22.8071928 L109.080576,22.8071928 C106.60365,23.1019632 104.356561,21.3324867 104.06179,18.8538526 C104.027614,18.5624999 104.020779,18.268584 104.043848,17.9755225 L104.043848,10.2115281 L101.597681,10.2115281 L101.597681,7.29885536 L104.043848,7.29885536 L104.043848,3.00546129 L108.231295,3.00546129 L108.231295,7.29885536 L111.764267,7.29885536 L111.764267,10.2115281 L108.231295,10.2115281 Z" id="Fill-13"></path>
                        <path d="M124.61352,7.15018858 L124.61352,11.1325786 C121.362502,11.1325786 119.456321,12.3073879 119.456321,15.3969228 L119.456321,22.8071928 L115.284252,22.8071928 L115.284252,7.29885536 L119.266642,7.29885536 L119.266642,10.2713365 C120.409839,8.39762247 122.420258,7.22452197 124.61352,7.15018858" id="Fill-15"></path>
                        <polygon id="Fill-17" points="141.723358 7.29868447 132.600856 30.1010926 128.312589 30.1010926 131.561898 21.8859714 125.600702 7.29868447 130.186303 7.29868447 133.770539 17.9309224 137.347086 7.29868447"></polygon>
                    </g>
                    <path d="M154.573991,23 L154.573991,14.8962912 L158.583857,14.8962912 C161.216442,14.8962912 163.27728,14.2459936 164.766368,12.9453984 C166.255456,11.6448031 167,9.86767399 167,7.61401099 C167,6.12912088 166.659492,4.80483059 165.978475,3.64114011 C165.297459,2.47744963 164.324215,1.57967033 163.058744,0.947802198 C161.793274,0.315934066 160.327055,0 158.66009,0 L158.66009,0 L150,0 L150,23 L154.573991,23 Z M159.1875,11 L155,11 L155,4 L159.296875,4 C160.453125,4.02042305 161.359375,4.36761488 162.015625,5.04157549 C162.671875,5.71553611 163,6.59883297 163,7.69146608 C163,8.75346462 162.674479,9.57038658 162.023438,10.1422319 C161.372396,10.7140773 160.427083,11 159.1875,11 L159.1875,11 Z M174.738046,23 C176.484407,23 177.903326,22.4090909 178.994802,21.2272727 C179.088358,21.8131313 179.239085,22.3030303 179.446985,22.6969697 L179.446985,22.6969697 L184,22.6969697 L184,22.4393939 C183.56341,21.6414141 183.339917,20.4646465 183.329522,18.9090909 L183.329522,18.9090909 L183.329522,11.8030303 C183.329522,9.96464646 182.718815,8.53787879 181.497401,7.52272727 C180.275988,6.50757576 178.62578,6 176.546778,6 C175.174636,6 173.93763,6.22979798 172.835759,6.68939394 C171.733888,7.1489899 170.881497,7.78282828 170.278586,8.59090909 C169.675676,9.3989899 169.37422,10.2777778 169.37422,11.2272727 L169.37422,11.2272727 L173.880457,11.2272727 C173.880457,10.6111111 174.096154,10.1262626 174.527547,9.77272727 C174.95894,9.41919192 175.554054,9.24242424 176.31289,9.24242424 C177.175676,9.24242424 177.807173,9.46969697 178.20738,9.92424242 C178.607588,10.3787879 178.807692,10.9848485 178.807692,11.7424242 L178.807692,11.7424242 L178.807692,12.6818182 L176.733888,12.6818182 C174.22869,12.6919192 172.31341,13.1616162 170.988046,14.0909091 C169.662682,15.020202 169,16.3535354 169,18.0909091 C169,19.5050505 169.543139,20.6767677 170.629418,21.6060606 C171.715696,22.5353535 173.085239,23 174.738046,23 Z M176.088235,20 C175.441176,20 174.931373,19.7995418 174.558824,19.3986254 C174.186275,18.997709 174,18.4879725 174,17.8694158 L174,17.8694158 L174.014706,17.5773196 C174.151961,15.8591065 175.284314,15 177.411765,15 L177.411765,15 L179,15 L179,18.1958763 C178.745098,18.7457045 178.352941,19.1838488 177.823529,19.5103093 C177.294118,19.8367698 176.715686,20 176.088235,20 Z M193.091106,23 C195.125813,23 196.785973,22.5378788 198.071584,21.6136364 C199.357195,20.6893939 200,19.479798 200,17.9848485 C200,15.8939394 198.840926,14.4242424 196.522777,13.5757576 C195.77368,13.3030303 194.852495,13.0580808 193.759219,12.8409091 C192.665944,12.6237374 191.889009,12.3661616 191.428416,12.0681818 C190.967824,11.770202 190.737527,11.3787879 190.737527,10.8939394 C190.737527,10.3787879 190.939986,9.95454545 191.344902,9.62121212 C191.749819,9.28787879 192.321764,9.12121212 193.060738,9.12121212 C193.921186,9.12121212 194.553868,9.32575758 194.958785,9.73484848 C195.363702,10.1439394 195.566161,10.6616162 195.566161,11.2878788 L195.566161,11.2878788 L199.954447,11.2878788 C199.954447,9.72222222 199.329356,8.44949495 198.079176,7.46969697 C196.828995,6.48989899 195.161244,6 193.075922,6 C191.122198,6 189.540492,6.48737374 188.330803,7.46212121 C187.121114,8.43686869 186.516269,9.65151515 186.516269,11.1060606 C186.516269,13.6010101 188.469993,15.2575758 192.37744,16.0757576 C193.551699,16.3181818 194.404555,16.5934343 194.936009,16.9015152 C195.467462,17.209596 195.733189,17.6313131 195.733189,18.1666667 C195.733189,18.6818182 195.518077,19.0984848 195.087852,19.4166667 C194.657628,19.7348485 194.022415,19.8939394 193.182213,19.8939394 C192.281273,19.8939394 191.562545,19.6868687 191.02603,19.2727273 C190.489516,18.8585859 190.201012,18.2626263 190.160521,17.4848485 L190.160521,17.4848485 L186,17.4848485 C186,18.4747475 186.303688,19.3964646 186.911063,20.25 C187.518438,21.1035354 188.35611,21.7752525 189.424078,22.2651515 C190.492046,22.7550505 191.714389,23 193.091106,23 Z M210.091106,23 C212.125813,23 213.785973,22.5378788 215.071584,21.6136364 C216.357195,20.6893939 217,19.479798 217,17.9848485 C217,15.8939394 215.840926,14.4242424 213.522777,13.5757576 C212.77368,13.3030303 211.852495,13.0580808 210.759219,12.8409091 C209.665944,12.6237374 208.889009,12.3661616 208.428416,12.0681818 C207.967824,11.770202 207.737527,11.3787879 207.737527,10.8939394 C207.737527,10.3787879 207.939986,9.95454545 208.344902,9.62121212 C208.749819,9.28787879 209.321764,9.12121212 210.060738,9.12121212 C210.921186,9.12121212 211.553868,9.32575758 211.958785,9.73484848 C212.363702,10.1439394 212.566161,10.6616162 212.566161,11.2878788 L212.566161,11.2878788 L216.954447,11.2878788 C216.954447,9.72222222 216.329356,8.44949495 215.079176,7.46969697 C213.828995,6.48989899 212.161244,6 210.075922,6 C208.122198,6 206.540492,6.48737374 205.330803,7.46212121 C204.121114,8.43686869 203.516269,9.65151515 203.516269,11.1060606 C203.516269,13.6010101 205.469993,15.2575758 209.37744,16.0757576 C210.551699,16.3181818 211.404555,16.5934343 211.936009,16.9015152 C212.467462,17.209596 212.733189,17.6313131 212.733189,18.1666667 C212.733189,18.6818182 212.518077,19.0984848 212.087852,19.4166667 C211.657628,19.7348485 211.022415,19.8939394 210.182213,19.8939394 C209.281273,19.8939394 208.562545,19.6868687 208.02603,19.2727273 C207.489516,18.8585859 207.201012,18.2626263 207.160521,17.4848485 L207.160521,17.4848485 L203,17.4848485 C203,18.4747475 203.303688,19.3964646 203.911063,20.25 C204.518438,21.1035354 205.35611,21.7752525 206.424078,22.2651515 C207.492046,22.7550505 208.714389,23 210.091106,23 Z" id="Pass" fill-rule="nonzero"></path>
                </g>
            </g>
        </g>
    </g>
</svg>